<?xml version="1.0" encoding="UTF-8" standalone="no"?>
<!-- Created with Inkscape (http://www.inkscape.org/) -->

<svg
   xmlns:dc="http://purl.org/dc/elements/1.1/"
   xmlns:cc="http://creativecommons.org/ns#"
   xmlns:rdf="http://www.w3.org/1999/02/22-rdf-syntax-ns#"
   xmlns:svg="http://www.w3.org/2000/svg"
   xmlns="http://www.w3.org/2000/svg"
   xmlns:sodipodi="http://sodipodi.sourceforge.net/DTD/sodipodi-0.dtd"
   xmlns:inkscape="http://www.inkscape.org/namespaces/inkscape"
   width="500"
   height="500"
   id="svg2"
   version="1.1"
   inkscape:version="0.48.3.1 r9886"
   inkscape:export-filename="/home/henry/Original/workspace/species-chappy/src/main/resources/level_one.png"
   inkscape:export-xdpi="90"
   inkscape:export-ydpi="90"
   sodipodi:docname="New document 1">
  <defs
     id="defs4" />
  <sodipodi:namedview
     id="base"
     pagecolor="#ffffff"
     bordercolor="#666666"
     borderopacity="1.0"
     inkscape:pageopacity="0.0"
     inkscape:pageshadow="2"
     inkscape:zoom="1.979899"
     inkscape:cx="208.97678"
     inkscape:cy="290.89755"
     inkscape:document-units="px"
     inkscape:current-layer="layer1"
     showgrid="false"
     inkscape:window-width="1280"
     inkscape:window-height="724"
     inkscape:window-x="0"
     inkscape:window-y="24"
     inkscape:window-maximized="1" />
  <metadata
     id="metadata7">
    <rdf:RDF>
      <cc:Work
         rdf:about="">
        <dc:format>image/svg+xml</dc:format>
        <dc:type
           rdf:resource="http://purl.org/dc/dcmitype/StillImage" />
        <dc:title></dc:title>
      </cc:Work>
    </rdf:RDF>
  </metadata>
  <g
     inkscape:label="Layer 1"
     inkscape:groupmode="layer"
     id="layer1"
     transform="translate(0,-552.36218)">
    <path
       style="fill:#00940a;fill-opacity:1;stroke:#000000;stroke-width:1px;stroke-linecap:butt;stroke-linejoin:miter;stroke-opacity:1"
       d="M 20.203051,25.73338 C 25.45465,10.423428 26.717341,9.6658136 48.006605,9.0738843 69.295872,8.4819551 122.22846,10.076016 122.22846,10.076016 c 0,0 39.48257,-3.4575375 51.28318,11.407545 26.82282,33.78836 27.05714,110.816419 -4.31109,145.288659 C 146.13838,192.11648 87.791622,199.2591 59.599,179.78164 18.243117,151.21007 2.4490619,77.491472 20.203051,25.73338 z"
       id="path3000"
       inkscape:connector-curvature="0"
       sodipodi:nodetypes="sscssss"
       inkscape:export-xdpi="90"
       inkscape:export-ydpi="90"
       transform="translate(0,552.36218)" />
    <path
       style="fill:#a3e00c;stroke:#000000;stroke-width:1px;stroke-linecap:butt;stroke-linejoin:miter;stroke-opacity:1;fill-opacity:1"
       d="M 60.714286,260 C 74.033201,244.40198 101.91714,256.32422 121.42857,250 142.19332,243.26954 162.26451,207.98926 180,220.71429 218.08312,248.03853 192.81675,325.84783 160.71429,360 137.2561,384.95597 86.444962,402.12296 60,380.35714 29.023231,354.86137 34.662038,290.51024 60.714286,260 z"
       id="path3002"
       inkscape:connector-curvature="0"
       transform="translate(0,552.36218)"
       sodipodi:nodetypes="ssssss" />
    <path
       style="fill:#ffff00;stroke:#000000;stroke-width:0.96921855000000001px;stroke-linecap:butt;stroke-linejoin:miter;stroke-opacity:1"
       d="m 308.48927,952.50807 c 67.58459,23.2318 178.51175,-15.73013 191.56839,-97.37251 13.05665,-81.64237 -109.91983,-156.64008 -191.56839,-196.14605 -19.06038,-9.22244 -62.94391,-6.3047 -62.94391,-6.3047 0,0 -25.54441,-0.465 -32.15611,6.3047 -22.57656,23.11604 0,98.07303 0,98.07303 0,0 27.70901,172.28028 95.10002,195.44553 z"
       id="path3004"
       inkscape:connector-curvature="0"
       sodipodi:nodetypes="szscscs" />
    <path
       style="fill:#008000;fill-opacity:1;stroke:none"
       d="m 92.678572,142.85714 c 0.892857,-23.39286 2.5,-24.0625 2.5,-24.0625 l 1.428571,24.0625 4.285717,-24.10714 2.14286,23.92857 2.67857,-24.64286 2.32142,24.28572 z"
       id="path3878"
       inkscape:connector-curvature="0"
       transform="translate(0,552.36218)"
       sodipodi:nodetypes="cccccccc" />
    <path
       style="fill:#008000;fill-opacity:1;stroke:none"
       d="m 143.75,631.91575 c 0.89286,-23.39286 2.5,-24.0625 2.5,-24.0625 l 1.42857,24.0625 4.28572,-24.10714 2.14286,23.92857 2.67857,-24.64286 2.32142,24.28572 z"
       id="path3878-5"
       inkscape:connector-curvature="0"
       sodipodi:nodetypes="cccccccc" />
    <path
       style="fill:#008000;fill-opacity:1;stroke:none"
       d="m 42.321431,661.91575 c 0.892857,-23.39286 2.5,-24.0625 2.5,-24.0625 l 1.428571,24.0625 4.285717,-24.10714 2.14286,23.92857 2.67857,-24.64286 2.32142,24.28572 z"
       id="path3878-58"
       inkscape:connector-curvature="0"
       sodipodi:nodetypes="cccccccc" />
    <path
       style="fill:#008000;fill-opacity:1;stroke:none"
       d="m 58.035717,613.34432 c 0.892857,-23.39286 2.5,-24.0625 2.5,-24.0625 l 1.428571,24.0625 4.285717,-24.10714 2.14286,23.92857 2.67857,-24.64286 2.32142,24.28572 z"
       id="path3878-4"
       inkscape:connector-curvature="0"
       sodipodi:nodetypes="cccccccc" />
    <path
       style="fill:#008000;stroke:#007400;stroke-width:1px;stroke-linecap:butt;stroke-linejoin:miter;stroke-opacity:1"
       d="m 130.56222,112.10142 -0.25254,26.51651"
       id="path3916"
       inkscape:connector-curvature="0"
       transform="translate(0,552.36218)" />
    <path
       sodipodi:type="arc"
       style="fill:#ff0000;fill-opacity:1;stroke:none"
       id="path3914"
       sodipodi:cx="130.81476"
       sodipodi:cy="111.59634"
       sodipodi:rx="5.4295697"
       sodipodi:ry="5.8083773"
       d="m 136.24433,111.59634 a 5.4295697,5.8083773 0 1 1 -10.85914,0 5.4295697,5.8083773 0 1 1 10.85914,0 z"
       transform="translate(0,552.36218)" />
    <path
       sodipodi:type="arc"
       style="fill:#ffff00;fill-opacity:1;stroke:none"
       id="path3912"
       sodipodi:cx="130.43594"
       sodipodi:cy="111.40694"
       sodipodi:rx="2.6516504"
       sodipodi:ry="2.7147849"
       d="m 133.08759,111.40694 a 2.6516504,2.7147849 0 1 1 -5.3033,0 2.6516504,2.7147849 0 1 1 5.3033,0 z"
       transform="translate(0,552.36218)" />
    <path
       sodipodi:type="arc"
       style="fill:#008000;fill-opacity:1;stroke:#007400;stroke-width:0;stroke-miterlimit:4;stroke-opacity:1;stroke-dasharray:none"
       id="path3918"
       sodipodi:cx="135.2973"
       sodipodi:cy="124.03385"
       sodipodi:rx="4.6088209"
       sodipodi:ry="1.5783633"
       d="m 139.90612,124.03385 a 4.6088209,1.5783633 0 1 1 -9.21764,0 4.6088209,1.5783633 0 1 1 9.21764,0 z"
       transform="translate(0,552.36218)" />
    <path
       transform="translate(-9.5333102,552.29905)"
       sodipodi:type="arc"
       style="fill:#008000;fill-opacity:1;stroke:#007400;stroke-width:0;stroke-miterlimit:4;stroke-opacity:1;stroke-dasharray:none"
       id="path3918-4"
       sodipodi:cx="135.2973"
       sodipodi:cy="124.03385"
       sodipodi:rx="4.6088209"
       sodipodi:ry="1.5783633"
       d="m 139.90612,124.03385 a 4.6088209,1.5783633 0 1 1 -9.21764,0 4.6088209,1.5783633 0 1 1 9.21764,0 z" />
    <path
       style="fill:#008000;stroke:#007400;stroke-width:1px;stroke-linecap:butt;stroke-linejoin:miter;stroke-opacity:1"
       d="m 98.016367,608.65521 -0.25254,26.51651"
       id="path3916-3"
       inkscape:connector-curvature="0" />
    <path
       transform="translate(-32.54585,496.55379)"
       sodipodi:type="arc"
       style="fill:#ff0000;fill-opacity:1;stroke:none"
       id="path3914-2"
       sodipodi:cx="130.81476"
       sodipodi:cy="111.59634"
       sodipodi:rx="5.4295697"
       sodipodi:ry="5.8083773"
       d="m 136.24433,111.59634 a 5.4295697,5.8083773 0 1 1 -10.85914,0 5.4295697,5.8083773 0 1 1 10.85914,0 z" />
    <path
       transform="translate(-32.54585,496.55379)"
       sodipodi:type="arc"
       style="fill:#ffff00;fill-opacity:1;stroke:none"
       id="path3912-4"
       sodipodi:cx="130.43594"
       sodipodi:cy="111.40694"
       sodipodi:rx="2.6516504"
       sodipodi:ry="2.7147849"
       d="m 133.08759,111.40694 a 2.6516504,2.7147849 0 1 1 -5.3033,0 2.6516504,2.7147849 0 1 1 5.3033,0 z" />
    <path
       transform="translate(-32.54585,496.55379)"
       sodipodi:type="arc"
       style="fill:#008000;fill-opacity:1;stroke:#007400;stroke-width:0;stroke-miterlimit:4;stroke-opacity:1;stroke-dasharray:none"
       id="path3918-7"
       sodipodi:cx="135.2973"
       sodipodi:cy="124.03385"
       sodipodi:rx="4.6088209"
       sodipodi:ry="1.5783633"
       d="m 139.90612,124.03385 a 4.6088209,1.5783633 0 1 1 -9.21764,0 4.6088209,1.5783633 0 1 1 9.21764,0 z" />
    <path
       transform="translate(-42.07916,496.49066)"
       sodipodi:type="arc"
       style="fill:#008000;fill-opacity:1;stroke:#007400;stroke-width:0;stroke-miterlimit:4;stroke-opacity:1;stroke-dasharray:none"
       id="path3918-4-5"
       sodipodi:cx="135.2973"
       sodipodi:cy="124.03385"
       sodipodi:rx="4.6088209"
       sodipodi:ry="1.5783633"
       d="m 139.90612,124.03385 a 4.6088209,1.5783633 0 1 1 -9.21764,0 4.6088209,1.5783633 0 1 1 9.21764,0 z" />
    <path
       style="fill:#ffff00;fill-opacity:1;stroke:none"
       d="m 72.123482,855.67132 c 0.892857,-23.39286 2.5,-24.0625 2.5,-24.0625 l 1.428571,24.0625 4.285717,-24.10714 2.14286,23.92857 2.67857,-24.64286 2.32142,24.28572 z"
       id="path3878-58-0"
       inkscape:connector-curvature="0"
       sodipodi:nodetypes="cccccccc" />
    <path
       style="fill:#fbf900;fill-opacity:1;stroke:none"
       d="m 127.68187,897.08758 c 0.89286,-23.39286 2.5,-24.0625 2.5,-24.0625 l 1.42857,24.0625 4.28572,-24.10714 2.14286,23.92857 2.67857,-24.64286 2.32142,24.28572 z"
       id="path3878-58-0-4"
       inkscape:connector-curvature="0"
       sodipodi:nodetypes="cccccccc" />
    <path
       sodipodi:type="arc"
       style="fill:#ffffff;fill-opacity:1;stroke:#000000;stroke-width:1;stroke-miterlimit:4;stroke-opacity:1;stroke-dasharray:none"
       id="path4006"
       sodipodi:cx="309.61176"
       sodipodi:cy="308.07101"
       sodipodi:rx="11.616755"
       sodipodi:ry="12.121831"
       d="m 321.22851,308.07101 a 11.616755,12.121831 0 1 1 -23.23351,0 11.616755,12.121831 0 1 1 23.23351,0 z"
       transform="translate(0,552.36218)" />
    <path
       transform="matrix(0.36627191,0,0,0.36689731,191.28145,742.77128)"
       sodipodi:type="arc"
       style="fill:#000000;fill-opacity:1;stroke:#000000;stroke-width:1;stroke-miterlimit:4;stroke-opacity:1;stroke-dasharray:none"
       id="path4006-2"
       sodipodi:cx="309.61176"
       sodipodi:cy="308.07101"
       sodipodi:rx="11.616755"
       sodipodi:ry="12.121831"
       d="m 321.22851,308.07101 a 11.616755,12.121831 0 1 1 -23.23351,0 11.616755,12.121831 0 1 1 23.23351,0 z" />
    <path
       transform="matrix(0.36627191,0,0,0.36689731,199.8122,743.26032)"
       sodipodi:type="arc"
       style="fill:#000000;fill-opacity:1;stroke:#000000;stroke-width:1;stroke-miterlimit:4;stroke-opacity:1;stroke-dasharray:none"
       id="path4006-2-6"
       sodipodi:cx="309.61176"
       sodipodi:cy="308.07101"
       sodipodi:rx="11.616755"
       sodipodi:ry="12.121831"
       d="m 321.22851,308.07101 a 11.616755,12.121831 0 1 1 -23.23351,0 11.616755,12.121831 0 1 1 23.23351,0 z" />
    <path
       transform="matrix(0.51635099,0,0,0.36689731,149.01795,752.8139)"
       sodipodi:type="arc"
       style="fill:#000000;fill-opacity:1;stroke:#000000;stroke-width:1;stroke-miterlimit:4;stroke-opacity:1;stroke-dasharray:none"
       id="path4006-2-1"
       sodipodi:cx="309.61176"
       sodipodi:cy="308.07101"
       sodipodi:rx="11.616755"
       sodipodi:ry="12.121831"
       d="m 321.22851,308.07101 a 11.616755,12.121831 0 1 1 -23.23351,0 11.616755,12.121831 0 1 1 23.23351,0 z" />
    <path
       style="fill:#ffffff;stroke:#ffffff;stroke-width:1px;stroke-linecap:butt;stroke-linejoin:miter;stroke-opacity:1"
       d="m 301.78572,313.48214 c 15.35714,0.53572 15.35714,0.53572 15.35714,0.53572"
       id="path4051"
       inkscape:connector-curvature="0"
       transform="translate(0,552.36218)" />
    <path
       style="fill:none;stroke:#ffffff;stroke-width:1px;stroke-linecap:butt;stroke-linejoin:miter;stroke-opacity:1"
       d="m 305.89286,308.83929 c -0.53572,8.92857 -0.53572,8.92857 -0.53572,8.92857"
       id="path4053"
       inkscape:connector-curvature="0"
       transform="translate(0,552.36218)" />
    <path
       style="fill:none;stroke:#ffffff;stroke-width:1px;stroke-linecap:butt;stroke-linejoin:miter;stroke-opacity:1"
       d="m 309.28572,307.76786 c -0.625,10.89285 -0.625,10.89285 -0.625,10.89285"
       id="path4055"
       inkscape:connector-curvature="0"
       transform="translate(0,552.36218)" />
    <path
       style="fill:none;stroke:#ffffff;stroke-width:1px;stroke-linecap:butt;stroke-linejoin:miter;stroke-opacity:1"
       d="m 313.57143,309.375 c -0.71429,8.48214 -0.80357,8.48214 -0.80357,8.48214"
       id="path4057"
       inkscape:connector-curvature="0"
       transform="translate(0,552.36218)" />
    <path
       style="fill:#0bc600;fill-opacity:1;stroke:#000000;stroke-width:1px;stroke-linecap:butt;stroke-linejoin:miter;stroke-opacity:1"
       d="m 394.07636,752.44186 c -0.98543,-0.42582 -1.88861,-1.24978 -2.32143,-2.23215 -0.96027,-2.17953 -1.8415,-5.43782 -0.17857,-7.14285 0.78965,-0.80963 2.63021,-0.83512 3.39285,0 1.33005,1.45645 -1.93666,4.50446 -0.53571,5.89285 0.4249,0.42109 1.37387,0.2553 1.78571,-0.17857 1.29231,-1.36144 -1.09067,-4.32962 0.26786,-5.625 0.77542,-0.73938 2.4832,-0.78325 3.21429,0 1.18066,1.26489 -1.49196,3.87239 -0.35715,5.17857 0.27397,0.31534 0.94428,0.37396 1.25,0.0893 1.32869,-1.23715 -0.28523,-4.06145 1.07143,-5.26786 0.76139,-0.67706 2.54381,-0.58863 3.21429,0.17857 1.13609,1.29998 -0.69508,5.91415 -1.25001,7.67858 -0.55493,1.76443 -3.01842,0.29201 -3.83928,2.05357 -1.25708,2.69768 -0.71429,8.125 -0.71429,8.125 l -3.75,0.0893 c 0,0 2.48404,-6.57219 0.53571,-8.75 -0.39737,-0.44417 -1.23862,0.14709 -1.7857,-0.0893 z"
       id="path4078"
       inkscape:connector-curvature="0"
       sodipodi:nodetypes="sssssssssssszsccss" />
    <path
       style="fill:#0bc600;fill-opacity:1;stroke:#000000;stroke-width:1px;stroke-linecap:butt;stroke-linejoin:miter;stroke-opacity:1"
       d="m 256.75141,767.06526 c -0.98543,-0.42582 -1.88861,-1.24978 -2.32143,-2.23215 -0.96027,-2.17953 -1.8415,-5.43782 -0.17857,-7.14285 0.78965,-0.80963 2.63021,-0.83512 3.39285,0 1.33005,1.45645 -1.93666,4.50446 -0.53571,5.89285 0.4249,0.42109 1.37387,0.2553 1.78571,-0.17857 1.29231,-1.36144 -1.09067,-4.32962 0.26786,-5.625 0.77542,-0.73938 2.4832,-0.78325 3.21429,0 1.18066,1.26489 -1.49196,3.87239 -0.35715,5.17857 0.27397,0.31534 0.94428,0.37396 1.25,0.0893 1.32869,-1.23715 -0.28523,-4.06145 1.07143,-5.26786 0.76139,-0.67706 2.54381,-0.58863 3.21429,0.17857 1.13609,1.29998 -0.69508,5.91415 -1.25001,7.67858 -0.55493,1.76443 -3.01842,0.29201 -3.83928,2.05357 -1.25708,2.69768 -0.71429,8.125 -0.71429,8.125 l -3.75,0.0893 c 0,0 2.48404,-6.57219 0.53571,-8.75 -0.39737,-0.44417 -1.23862,0.14709 -1.7857,-0.0893 z"
       id="path4078-6"
       inkscape:connector-curvature="0"
       sodipodi:nodetypes="sssssssssssszsccss" />
    <path
       style="fill:#0bc600;fill-opacity:1;stroke:#000000;stroke-width:1px;stroke-linecap:butt;stroke-linejoin:miter;stroke-opacity:1"
       d="m 403.72861,863.02976 c -0.98543,-0.42582 -1.88861,-1.24978 -2.32143,-2.23215 -0.96027,-2.17953 -1.8415,-5.43782 -0.17857,-7.14285 0.78965,-0.80963 2.63021,-0.83512 3.39285,0 1.33005,1.45645 -1.93666,4.50446 -0.53571,5.89285 0.4249,0.42109 1.37387,0.2553 1.78571,-0.17857 1.29231,-1.36144 -1.09067,-4.32962 0.26786,-5.625 0.77542,-0.73938 2.4832,-0.78325 3.21429,0 1.18066,1.26489 -1.49196,3.87239 -0.35715,5.17857 0.27397,0.31534 0.94428,0.37396 1.25,0.0893 1.32869,-1.23715 -0.28523,-4.06145 1.07143,-5.26786 0.76139,-0.67706 2.54381,-0.58863 3.21429,0.17857 1.13609,1.29998 -0.69508,5.91415 -1.25001,7.67858 -0.55493,1.76443 -3.01842,0.29201 -3.83928,2.05357 -1.25708,2.69768 -0.71429,8.125 -0.71429,8.125 l -3.75,0.0893 c 0,0 2.48404,-6.57219 0.53571,-8.75 -0.39737,-0.44417 -1.23862,0.14709 -1.7857,-0.0893 z"
       id="path4078-5"
       inkscape:connector-curvature="0"
       sodipodi:nodetypes="sssssssssssszsccss" />
  </g>
</svg>
