<?xml version="1.0" encoding="UTF-8" standalone="no"?>
<!-- Created with Inkscape (http://www.inkscape.org/) -->

<svg
   xmlns:dc="http://purl.org/dc/elements/1.1/"
   xmlns:cc="http://creativecommons.org/ns#"
   xmlns:rdf="http://www.w3.org/1999/02/22-rdf-syntax-ns#"
   xmlns:svg="http://www.w3.org/2000/svg"
   xmlns="http://www.w3.org/2000/svg"
   xmlns:sodipodi="http://sodipodi.sourceforge.net/DTD/sodipodi-0.dtd"
   xmlns:inkscape="http://www.inkscape.org/namespaces/inkscape"
   width="500"
   height="500"
   id="svg2"
   version="1.1"
   inkscape:version="0.48.3.1 r9886"
   inkscape:export-filename="/home/henry/Original/workspace/species-chappy/src/main/resources/level_one.png"
   inkscape:export-xdpi="90"
   inkscape:export-ydpi="90"
   sodipodi:docname="level_one.svg">
  <defs
     id="defs4" />
  <sodipodi:namedview
     id="base"
     pagecolor="#ffffff"
     bordercolor="#666666"
     borderopacity="1.0"
     inkscape:pageopacity="0.0"
     inkscape:pageshadow="2"
     inkscape:zoom="0.5568466"
     inkscape:cx="59.250489"
     inkscape:cy="427.87534"
     inkscape:document-units="px"
     inkscape:current-layer="layer1"
     showgrid="false"
     inkscape:window-width="1280"
     inkscape:window-height="724"
     inkscape:window-x="0"
     inkscape:window-y="24"
     inkscape:window-maximized="1" />
  <metadata
     id="metadata7">
    <rdf:RDF>
      <cc:Work
         rdf:about="">
        <dc:format>image/svg+xml</dc:format>
        <dc:type
           rdf:resource="http://purl.org/dc/dcmitype/StillImage" />
        <dc:title></dc:title>
      </cc:Work>
    </rdf:RDF>
  </metadata>
  <g
     inkscape:label="Layer 1"
     inkscape:groupmode="layer"
     id="layer1"
     transform="translate(0,-552.36218)">
    <path
       style="fill:#00ffff;fill-opacity:1;stroke:#000000;stroke-width:1px;stroke-linecap:butt;stroke-linejoin:miter;stroke-opacity:1"
       d="m 261.27876,972.4058 -10.10153,-23.48605 3.283,3.53554 2.65165,-4.67196 1.13642,4.54569 4.41942,-3.91434 0.63134,4.29314 4.29315,-4.41941 0.3788,4.92449 4.54569,-4.16688 z"
       id="path3816"
       inkscape:connector-curvature="0" />
    <path
       style="fill:#00940a;fill-opacity:1;stroke:#000000;stroke-width:1px;stroke-linecap:butt;stroke-linejoin:miter;stroke-opacity:1"
       d="M 20.203051,25.73338 C 25.45465,10.423428 26.717341,9.6658136 48.006605,9.0738843 69.295872,8.4819551 122.22846,10.076016 122.22846,10.076016 c 0,0 39.48257,-3.4575375 51.28318,11.407545 26.82282,33.78836 27.05714,110.816419 -4.31109,145.288659 C 146.13838,192.11648 87.791622,199.2591 59.599,179.78164 18.243117,151.21007 2.4490619,77.491472 20.203051,25.73338 z"
       id="path3000"
       inkscape:connector-curvature="0"
       sodipodi:nodetypes="sscssss"
       inkscape:export-xdpi="90"
       inkscape:export-ydpi="90"
       transform="translate(0,552.36218)" />
    <path
       style="fill:#a3e00c;stroke:#000000;stroke-width:1px;stroke-linecap:butt;stroke-linejoin:miter;stroke-opacity:1;fill-opacity:1"
       d="M 60.714286,260 C 74.033201,244.40198 101.91714,256.32422 121.42857,250 142.19332,243.26954 162.26451,207.98926 180,220.71429 218.08312,248.03853 192.81675,325.84783 160.71429,360 137.2561,384.95597 86.444962,402.12296 60,380.35714 29.023231,354.86137 34.662038,290.51024 60.714286,260 z"
       id="path3002"
       inkscape:connector-curvature="0"
       transform="translate(0,552.36218)"
       sodipodi:nodetypes="ssssss" />
    <path
       style="fill:#ffff00;stroke:#000000;stroke-width:0.96921855000000001px;stroke-linecap:butt;stroke-linejoin:miter;stroke-opacity:1"
       d="m 308.48927,952.50807 c 67.58459,23.2318 178.51175,-15.73013 191.56839,-97.37251 13.05665,-81.64237 -109.91983,-156.64008 -191.56839,-196.14605 -19.06038,-9.22244 -62.94391,-6.3047 -62.94391,-6.3047 0,0 -25.54441,-0.465 -32.15611,6.3047 -22.57656,23.11604 0,98.07303 0,98.07303 0,0 27.70901,172.28028 95.10002,195.44553 z"
       id="path3004"
       inkscape:connector-curvature="0"
       sodipodi:nodetypes="szscscs" />
    <path
       style="fill:#008000;fill-opacity:1;stroke:none"
       d="m 92.678572,142.85714 c 0.892857,-23.39286 2.5,-24.0625 2.5,-24.0625 l 1.428571,24.0625 4.285717,-24.10714 2.14286,23.92857 2.67857,-24.64286 2.32142,24.28572 z"
       id="path3878"
       inkscape:connector-curvature="0"
       transform="translate(0,552.36218)"
       sodipodi:nodetypes="cccccccc" />
    <path
       style="fill:#008000;fill-opacity:1;stroke:none"
       d="m 143.75,631.91575 c 0.89286,-23.39286 2.5,-24.0625 2.5,-24.0625 l 1.42857,24.0625 4.28572,-24.10714 2.14286,23.92857 2.67857,-24.64286 2.32142,24.28572 z"
       id="path3878-5"
       inkscape:connector-curvature="0"
       sodipodi:nodetypes="cccccccc" />
    <path
       style="fill:#008000;fill-opacity:1;stroke:none"
       d="m 42.321431,661.91575 c 0.892857,-23.39286 2.5,-24.0625 2.5,-24.0625 l 1.428571,24.0625 4.285717,-24.10714 2.14286,23.92857 2.67857,-24.64286 2.32142,24.28572 z"
       id="path3878-58"
       inkscape:connector-curvature="0"
       sodipodi:nodetypes="cccccccc" />
    <path
       style="fill:#008000;fill-opacity:1;stroke:none"
       d="m 58.035717,613.34432 c 0.892857,-23.39286 2.5,-24.0625 2.5,-24.0625 l 1.428571,24.0625 4.285717,-24.10714 2.14286,23.92857 2.67857,-24.64286 2.32142,24.28572 z"
       id="path3878-4"
       inkscape:connector-curvature="0"
       sodipodi:nodetypes="cccccccc" />
    <path
       style="fill:#008000;stroke:#007400;stroke-width:1px;stroke-linecap:butt;stroke-linejoin:miter;stroke-opacity:1"
       d="m 130.56222,112.10142 -0.25254,26.51651"
       id="path3916"
       inkscape:connector-curvature="0"
       transform="translate(0,552.36218)" />
    <path
       sodipodi:type="arc"
       style="fill:#ff0000;fill-opacity:1;stroke:none"
       id="path3914"
       sodipodi:cx="130.81476"
       sodipodi:cy="111.59634"
       sodipodi:rx="5.4295697"
       sodipodi:ry="5.8083773"
       d="m 136.24433,111.59634 c 0,3.20787 -2.4309,5.80837 -5.42957,5.80837 -2.99867,0 -5.42957,-2.6005 -5.42957,-5.80837 0,-3.20788 2.4309,-5.80838 5.42957,-5.80838 2.99867,0 5.42957,2.6005 5.42957,5.80838 z"
       transform="translate(0,552.36218)" />
    <path
       sodipodi:type="arc"
       style="fill:#ffff00;fill-opacity:1;stroke:none"
       id="path3912"
       sodipodi:cx="130.43594"
       sodipodi:cy="111.40694"
       sodipodi:rx="2.6516504"
       sodipodi:ry="2.7147849"
       d="m 133.08759,111.40694 c 0,1.49933 -1.18718,2.71478 -2.65165,2.71478 -1.46446,0 -2.65165,-1.21545 -2.65165,-2.71478 0,-1.49934 1.18719,-2.71479 2.65165,-2.71479 1.46447,0 2.65165,1.21545 2.65165,2.71479 z"
       transform="translate(0,552.36218)" />
    <path
       sodipodi:type="arc"
       style="fill:#008000;fill-opacity:1;stroke:#007400;stroke-width:0;stroke-miterlimit:4;stroke-opacity:1;stroke-dasharray:none"
       id="path3918"
       sodipodi:cx="135.2973"
       sodipodi:cy="124.03385"
       sodipodi:rx="4.6088209"
       sodipodi:ry="1.5783633"
       d="m 139.90612,124.03385 c 0,0.87171 -2.06344,1.57836 -4.60882,1.57836 -2.54538,0 -4.60882,-0.70665 -4.60882,-1.57836 0,-0.8717 2.06344,-1.57836 4.60882,-1.57836 2.54538,0 4.60882,0.70666 4.60882,1.57836 z"
       transform="translate(0,552.36218)" />
    <path
       transform="translate(-9.5333102,552.29905)"
       sodipodi:type="arc"
       style="fill:#008000;fill-opacity:1;stroke:#007400;stroke-width:0;stroke-miterlimit:4;stroke-opacity:1;stroke-dasharray:none"
       id="path3918-4"
       sodipodi:cx="135.2973"
       sodipodi:cy="124.03385"
       sodipodi:rx="4.6088209"
       sodipodi:ry="1.5783633"
       d="m 139.90612,124.03385 c 0,0.87171 -2.06344,1.57836 -4.60882,1.57836 -2.54538,0 -4.60882,-0.70665 -4.60882,-1.57836 0,-0.8717 2.06344,-1.57836 4.60882,-1.57836 2.54538,0 4.60882,0.70666 4.60882,1.57836 z" />
    <path
       style="fill:#008000;stroke:#007400;stroke-width:1px;stroke-linecap:butt;stroke-linejoin:miter;stroke-opacity:1"
       d="m 98.016367,608.65521 -0.25254,26.51651"
       id="path3916-3"
       inkscape:connector-curvature="0" />
    <path
       transform="translate(-32.54585,496.55379)"
       sodipodi:type="arc"
       style="fill:#ff0000;fill-opacity:1;stroke:none"
       id="path3914-2"
       sodipodi:cx="130.81476"
       sodipodi:cy="111.59634"
       sodipodi:rx="5.4295697"
       sodipodi:ry="5.8083773"
       d="m 136.24433,111.59634 c 0,3.20787 -2.4309,5.80837 -5.42957,5.80837 -2.99867,0 -5.42957,-2.6005 -5.42957,-5.80837 0,-3.20788 2.4309,-5.80838 5.42957,-5.80838 2.99867,0 5.42957,2.6005 5.42957,5.80838 z" />
    <path
       transform="translate(-32.54585,496.55379)"
       sodipodi:type="arc"
       style="fill:#ffff00;fill-opacity:1;stroke:none"
       id="path3912-4"
       sodipodi:cx="130.43594"
       sodipodi:cy="111.40694"
       sodipodi:rx="2.6516504"
       sodipodi:ry="2.7147849"
       d="m 133.08759,111.40694 c 0,1.49933 -1.18718,2.71478 -2.65165,2.71478 -1.46446,0 -2.65165,-1.21545 -2.65165,-2.71478 0,-1.49934 1.18719,-2.71479 2.65165,-2.71479 1.46447,0 2.65165,1.21545 2.65165,2.71479 z" />
    <path
       transform="translate(-32.54585,496.55379)"
       sodipodi:type="arc"
       style="fill:#008000;fill-opacity:1;stroke:#007400;stroke-width:0;stroke-miterlimit:4;stroke-opacity:1;stroke-dasharray:none"
       id="path3918-7"
       sodipodi:cx="135.2973"
       sodipodi:cy="124.03385"
       sodipodi:rx="4.6088209"
       sodipodi:ry="1.5783633"
       d="m 139.90612,124.03385 c 0,0.87171 -2.06344,1.57836 -4.60882,1.57836 -2.54538,0 -4.60882,-0.70665 -4.60882,-1.57836 0,-0.8717 2.06344,-1.57836 4.60882,-1.57836 2.54538,0 4.60882,0.70666 4.60882,1.57836 z" />
    <path
       transform="translate(-42.07916,496.49066)"
       sodipodi:type="arc"
       style="fill:#008000;fill-opacity:1;stroke:#007400;stroke-width:0;stroke-miterlimit:4;stroke-opacity:1;stroke-dasharray:none"
       id="path3918-4-5"
       sodipodi:cx="135.2973"
       sodipodi:cy="124.03385"
       sodipodi:rx="4.6088209"
       sodipodi:ry="1.5783633"
       d="m 139.90612,124.03385 c 0,0.87171 -2.06344,1.57836 -4.60882,1.57836 -2.54538,0 -4.60882,-0.70665 -4.60882,-1.57836 0,-0.8717 2.06344,-1.57836 4.60882,-1.57836 2.54538,0 4.60882,0.70666 4.60882,1.57836 z" />
    <path
       style="fill:#ffff00;fill-opacity:1;stroke:none"
       d="m 72.123482,855.67132 c 0.892857,-23.39286 2.5,-24.0625 2.5,-24.0625 l 1.428571,24.0625 4.285717,-24.10714 2.14286,23.92857 2.67857,-24.64286 2.32142,24.28572 z"
       id="path3878-58-0"
       inkscape:connector-curvature="0"
       sodipodi:nodetypes="cccccccc" />
    <path
       style="fill:#fbf900;fill-opacity:1;stroke:none"
       d="m 127.68187,897.08758 c 0.89286,-23.39286 2.5,-24.0625 2.5,-24.0625 l 1.42857,24.0625 4.28572,-24.10714 2.14286,23.92857 2.67857,-24.64286 2.32142,24.28572 z"
       id="path3878-58-0-4"
       inkscape:connector-curvature="0"
       sodipodi:nodetypes="cccccccc" />
    <path
       sodipodi:type="arc"
       style="fill:#ffffff;fill-opacity:1;stroke:#000000;stroke-width:1;stroke-miterlimit:4;stroke-opacity:1;stroke-dasharray:none"
       id="path4006"
       sodipodi:cx="309.61176"
       sodipodi:cy="308.07101"
       sodipodi:rx="11.616755"
       sodipodi:ry="12.121831"
       d="m 321.22851,308.07101 c 0,6.69471 -5.201,12.12184 -11.61675,12.12184 -6.41576,0 -11.61676,-5.42713 -11.61676,-12.12184 0,-6.6947 5.201,-12.12183 11.61676,-12.12183 6.41575,0 11.61675,5.42713 11.61675,12.12183 z"
       transform="translate(0,552.36218)" />
    <path
       transform="matrix(0.36627191,0,0,0.36689731,191.28145,742.77128)"
       sodipodi:type="arc"
       style="fill:#000000;fill-opacity:1;stroke:#000000;stroke-width:1;stroke-miterlimit:4;stroke-opacity:1;stroke-dasharray:none"
       id="path4006-2"
       sodipodi:cx="309.61176"
       sodipodi:cy="308.07101"
       sodipodi:rx="11.616755"
       sodipodi:ry="12.121831"
       d="m 321.22851,308.07101 c 0,6.69471 -5.201,12.12184 -11.61675,12.12184 -6.41576,0 -11.61676,-5.42713 -11.61676,-12.12184 0,-6.6947 5.201,-12.12183 11.61676,-12.12183 6.41575,0 11.61675,5.42713 11.61675,12.12183 z" />
    <path
       transform="matrix(0.36627191,0,0,0.36689731,199.8122,743.26032)"
       sodipodi:type="arc"
       style="fill:#000000;fill-opacity:1;stroke:#000000;stroke-width:1;stroke-miterlimit:4;stroke-opacity:1;stroke-dasharray:none"
       id="path4006-2-6"
       sodipodi:cx="309.61176"
       sodipodi:cy="308.07101"
       sodipodi:rx="11.616755"
       sodipodi:ry="12.121831"
       d="m 321.22851,308.07101 c 0,6.69471 -5.201,12.12184 -11.61675,12.12184 -6.41576,0 -11.61676,-5.42713 -11.61676,-12.12184 0,-6.6947 5.201,-12.12183 11.61676,-12.12183 6.41575,0 11.61675,5.42713 11.61675,12.12183 z" />
    <path
       transform="matrix(0.51635099,0,0,0.36689731,149.01795,752.8139)"
       sodipodi:type="arc"
       style="fill:#000000;fill-opacity:1;stroke:#000000;stroke-width:1;stroke-miterlimit:4;stroke-opacity:1;stroke-dasharray:none"
       id="path4006-2-1"
       sodipodi:cx="309.61176"
       sodipodi:cy="308.07101"
       sodipodi:rx="11.616755"
       sodipodi:ry="12.121831"
       d="m 321.22851,308.07101 c 0,6.69471 -5.201,12.12184 -11.61675,12.12184 -6.41576,0 -11.61676,-5.42713 -11.61676,-12.12184 0,-6.6947 5.201,-12.12183 11.61676,-12.12183 6.41575,0 11.61675,5.42713 11.61675,12.12183 z" />
    <path
       style="fill:#ffffff;stroke:#ffffff;stroke-width:1px;stroke-linecap:butt;stroke-linejoin:miter;stroke-opacity:1"
       d="m 301.78572,313.48214 c 15.35714,0.53572 15.35714,0.53572 15.35714,0.53572"
       id="path4051"
       inkscape:connector-curvature="0"
       transform="translate(0,552.36218)" />
    <path
       style="fill:none;stroke:#ffffff;stroke-width:1px;stroke-linecap:butt;stroke-linejoin:miter;stroke-opacity:1"
       d="m 305.89286,308.83929 c -0.53572,8.92857 -0.53572,8.92857 -0.53572,8.92857"
       id="path4053"
       inkscape:connector-curvature="0"
       transform="translate(0,552.36218)" />
    <path
       style="fill:none;stroke:#ffffff;stroke-width:1px;stroke-linecap:butt;stroke-linejoin:miter;stroke-opacity:1"
       d="m 309.28572,307.76786 c -0.625,10.89285 -0.625,10.89285 -0.625,10.89285"
       id="path4055"
       inkscape:connector-curvature="0"
       transform="translate(0,552.36218)" />
    <path
       style="fill:none;stroke:#ffffff;stroke-width:1px;stroke-linecap:butt;stroke-linejoin:miter;stroke-opacity:1"
       d="m 313.57143,309.375 c -0.71429,8.48214 -0.80357,8.48214 -0.80357,8.48214"
       id="path4057"
       inkscape:connector-curvature="0"
       transform="translate(0,552.36218)" />
    <path
       style="fill:#0bc600;fill-opacity:1;stroke:#000000;stroke-width:1px;stroke-linecap:butt;stroke-linejoin:miter;stroke-opacity:1"
       d="m 394.07636,752.44186 c -0.98543,-0.42582 -1.88861,-1.24978 -2.32143,-2.23215 -0.96027,-2.17953 -1.8415,-5.43782 -0.17857,-7.14285 0.78965,-0.80963 2.63021,-0.83512 3.39285,0 1.33005,1.45645 -1.93666,4.50446 -0.53571,5.89285 0.4249,0.42109 1.37387,0.2553 1.78571,-0.17857 1.29231,-1.36144 -1.09067,-4.32962 0.26786,-5.625 0.77542,-0.73938 2.4832,-0.78325 3.21429,0 1.18066,1.26489 -1.49196,3.87239 -0.35715,5.17857 0.27397,0.31534 0.94428,0.37396 1.25,0.0893 1.32869,-1.23715 -0.28523,-4.06145 1.07143,-5.26786 0.76139,-0.67706 2.54381,-0.58863 3.21429,0.17857 1.13609,1.29998 -0.69508,5.91415 -1.25001,7.67858 -0.55493,1.76443 -3.01842,0.29201 -3.83928,2.05357 -1.25708,2.69768 -0.71429,8.125 -0.71429,8.125 l -3.75,0.0893 c 0,0 2.48404,-6.57219 0.53571,-8.75 -0.39737,-0.44417 -1.23862,0.14709 -1.7857,-0.0893 z"
       id="path4078"
       inkscape:connector-curvature="0"
       sodipodi:nodetypes="sssssssssssszsccss" />
    <path
       style="fill:#0bc600;fill-opacity:1;stroke:#000000;stroke-width:1px;stroke-linecap:butt;stroke-linejoin:miter;stroke-opacity:1"
       d="m 256.75141,767.06526 c -0.98543,-0.42582 -1.88861,-1.24978 -2.32143,-2.23215 -0.96027,-2.17953 -1.8415,-5.43782 -0.17857,-7.14285 0.78965,-0.80963 2.63021,-0.83512 3.39285,0 1.33005,1.45645 -1.93666,4.50446 -0.53571,5.89285 0.4249,0.42109 1.37387,0.2553 1.78571,-0.17857 1.29231,-1.36144 -1.09067,-4.32962 0.26786,-5.625 0.77542,-0.73938 2.4832,-0.78325 3.21429,0 1.18066,1.26489 -1.49196,3.87239 -0.35715,5.17857 0.27397,0.31534 0.94428,0.37396 1.25,0.0893 1.32869,-1.23715 -0.28523,-4.06145 1.07143,-5.26786 0.76139,-0.67706 2.54381,-0.58863 3.21429,0.17857 1.13609,1.29998 -0.69508,5.91415 -1.25001,7.67858 -0.55493,1.76443 -3.01842,0.29201 -3.83928,2.05357 -1.25708,2.69768 -0.71429,8.125 -0.71429,8.125 l -3.75,0.0893 c 0,0 2.48404,-6.57219 0.53571,-8.75 -0.39737,-0.44417 -1.23862,0.14709 -1.7857,-0.0893 z"
       id="path4078-6"
       inkscape:connector-curvature="0"
       sodipodi:nodetypes="sssssssssssszsccss" />
    <path
       style="fill:#0bc600;fill-opacity:1;stroke:#000000;stroke-width:1px;stroke-linecap:butt;stroke-linejoin:miter;stroke-opacity:1"
       d="m 403.72861,863.02976 c -0.98543,-0.42582 -1.88861,-1.24978 -2.32143,-2.23215 -0.96027,-2.17953 -1.8415,-5.43782 -0.17857,-7.14285 0.78965,-0.80963 2.63021,-0.83512 3.39285,0 1.33005,1.45645 -1.93666,4.50446 -0.53571,5.89285 0.4249,0.42109 1.37387,0.2553 1.78571,-0.17857 1.29231,-1.36144 -1.09067,-4.32962 0.26786,-5.625 0.77542,-0.73938 2.4832,-0.78325 3.21429,0 1.18066,1.26489 -1.49196,3.87239 -0.35715,5.17857 0.27397,0.31534 0.94428,0.37396 1.25,0.0893 1.32869,-1.23715 -0.28523,-4.06145 1.07143,-5.26786 0.76139,-0.67706 2.54381,-0.58863 3.21429,0.17857 1.13609,1.29998 -0.69508,5.91415 -1.25001,7.67858 -0.55493,1.76443 -3.01842,0.29201 -3.83928,2.05357 -1.25708,2.69768 -0.71429,8.125 -0.71429,8.125 l -3.75,0.0893 c 0,0 2.48404,-6.57219 0.53571,-8.75 -0.39737,-0.44417 -1.23862,0.14709 -1.7857,-0.0893 z"
       id="path4078-5"
       inkscape:connector-curvature="0"
       sodipodi:nodetypes="sssssssssssszsccss" />
    <path
       style="fill:#00ffff;stroke-width:4;stroke-miterlimit:4;stroke-dasharray:none"
       id="path3020"
       d="m 404.4952,115.67332 c 2.68389,0.5131 5.42405,0.6376 8.1483,0.7556 1.1306,-0.0631 2.31398,0.22036 3.43834,-0.0179 0.55721,-0.11811 0.7776,-0.33553 1.22026,-0.64649 -1.97033,1.11564 -3.94067,2.23127 -5.911,3.34691 0.90025,-0.71135 0.92927,-1.74835 0.98567,-2.81101 0.002,-0.18216 0.007,-0.36431 0.007,-0.54649 2.2e-4,-0.14775 -0.001,-0.29555 -0.006,-0.44324 -0.003,-0.0927 -0.11041,-0.23857 -0.026,-0.27693 6.85474,-3.1151 6.77398,-5.47275 6.66132,-2.46341 -0.0168,1.59665 -0.11495,3.19904 0.0545,4.78896 0.32916,1.46052 0.65178,2.99819 2.00557,3.81866 0.158,-0.0349 0.33555,-0.0209 0.47398,-0.10472 0.17493,-0.10586 0.60913,-0.53319 0.42691,-0.44045 -1.96051,0.99781 -3.79205,2.24586 -5.78866,3.16934 -0.28388,0.1313 0.39386,-0.48771 0.5616,-0.7517 0.32178,-0.50641 0.73675,-1.42754 0.98413,-1.94824 0.88074,-2.0369 1.78547,-4.06405 2.61446,-6.12285 1.15482,-2.99041 0.89676,-1.75205 7.1342,-4.18934 0.0261,-0.0102 0.63139,1.74787 0.66652,1.83936 0.63519,1.48916 1.6202,2.73313 2.67326,3.9424 1.42311,1.51988 2.81587,3.14177 4.71766,4.05982 0.2009,0.0669 0.39253,0.17497 0.6027,0.20079 0.17624,0.0216 0.36242,-5.5e-4 0.5291,-0.0618 0.17688,-0.065 0.63998,-0.3975 0.47475,-0.30689 -1.95852,1.07408 -3.87128,2.23277 -5.85583,3.25795 -0.21084,0.10892 0.35925,-0.31342 0.51023,-0.49651 0.15409,-0.18685 0.26641,-0.40453 0.39961,-0.6068 0.64935,-1.34779 0.91348,-2.85486 1.14925,-4.32344 0.12194,-0.77651 0.19676,-1.5567 0.20803,-2.34243 0.22389,-3.15133 1.8134,-2.17652 6.99446,-3.97918 0.20189,-0.0702 0.14077,0.40372 0.21573,0.60391 0.0993,0.26524 0.2047,0.52817 0.30705,0.79225 0.74575,1.57908 1.60931,3.10485 2.27726,4.71992 0.0907,0.10743 0.15523,0.2442 0.27216,0.32229 0.25421,0.16979 1.03475,0.31487 1.25559,0.35149 1.22872,0.20376 2.24324,0.0422 3.45764,-0.19592 1.27353,-0.34922 2.54996,-0.77584 3.72525,-1.38849 0.35411,-0.18459 1.37487,-0.81277 1.02588,-0.61869 -5.32047,2.95882 -7.05519,4.26145 -4.61509,2.48914 0.84674,-0.62455 1.45983,-1.41304 1.70579,-2.43689 0,0 6.74987,-3.2772 6.74987,-3.2772 l 0,0 c -0.18542,1.17863 -0.65165,2.206 -1.59422,2.98557 -2.91831,2.25418 -0.86507,0.71762 -7.94923,4.8445 -1.50344,0.87583 -3.18487,1.40988 -4.8747,1.78415 -1.60312,0.22359 -3.96601,0.49089 -5.3032,-0.71755 -0.15712,-0.14199 -0.2491,-0.34257 -0.37365,-0.51386 -0.58282,-1.64255 -1.37503,-3.20041 -2.21196,-4.72634 -0.12178,-0.26206 -0.24667,-0.5227 -0.36534,-0.78618 -0.0755,-0.16761 -0.37005,-0.40503 -0.21707,-0.50695 13.67482,-9.11104 6.99084,-5.44324 6.20036,-3.13801 -0.0135,0.82833 0.001,1.6551 -0.20108,2.46646 -0.27438,1.53632 -0.55135,3.09376 -1.06309,4.56752 -1.61336,3.31386 -2.6899,2.70681 -7.71376,5.44542 -0.59225,0.32285 -1.41485,-0.12315 -1.93538,-0.34688 -1.86925,-1.10353 -3.26573,-2.7818 -4.76682,-4.32282 -0.35481,-0.37133 -1.14822,-1.17694 -1.49709,-1.62376 -0.58366,-0.74753 -0.90294,-1.68278 -1.39118,-2.48707 -0.29388,-0.65378 -0.30345,-0.61282 -0.49028,-1.22487 -0.0176,-0.0577 -0.0908,-0.14623 -0.0388,-0.17688 2.12306,-1.25149 4.30845,-2.39418 6.45484,-3.60523 0.0877,-0.0495 -0.21424,0.0413 -0.27743,0.11978 -0.11552,0.1434 -0.15026,0.33624 -0.22539,0.50436 -0.91551,2.05129 -1.85638,4.09165 -2.68785,6.17904 -0.21984,0.49842 -0.96162,2.57793 -1.38499,2.87734 -2.21153,1.56403 -4.53136,2.97256 -6.86263,4.35178 -0.19885,0.11764 -0.4535,0.13038 -0.68388,0.11285 -0.23926,-0.0182 -0.45758,-0.14471 -0.68636,-0.21707 -1.4604,-1.15171 -1.80251,-2.63326 -2.25935,-4.37645 -0.2614,-1.6052 -0.1093,-3.23176 -0.16527,-4.85425 -0.0467,-3.13081 -0.17118,-0.56142 6.6919,-4.42729 0.0271,-0.0153 0.002,0.0622 0.001,0.0933 -0.005,0.25436 -0.0119,0.50868 -0.0172,0.76304 -0.004,0.18957 -0.009,0.37911 -0.0134,0.56867 -0.0242,0.80522 0.0323,1.76783 -0.20474,2.54628 -0.0532,0.17461 -0.44093,0.69579 -0.52236,0.81132 -2.45284,1.48694 -4.64213,3.64565 -7.42119,4.35576 -1.34727,0.34425 -2.77975,-0.0209 -4.14183,0.0178 -2.82125,-0.14839 -5.65714,-0.32003 -8.44405,-0.79575 0,0 6.20429,-4.20955 6.20429,-4.20955 z"
       inkscape:connector-curvature="0"
       transform="translate(0,552.36218)" />
    <path
       style="fill:#00ffff;stroke-width:4;stroke-miterlimit:4;stroke-dasharray:none"
       id="path3022"
       d="m 61.162242,969.96388 c 0.4129,0.64733 1.0082,1.46702 1.78561,1.7195 0.31033,0.10079 1.69186,0.20645 1.94938,0.22997 0.78302,-0.0316 1.09732,0.0424 1.80259,-0.29571 0.24314,-0.11658 0.90687,-0.58195 0.66937,-0.45426 -7.96634,4.28289 -6.62367,4.49801 -4.51702,1.75811 1.06215,-1.4429 1.89826,-3.02793 2.35899,-4.75995 0.67953,-3.66854 1.06069,-2.77747 7.23789,-4.61362 0.25671,-0.0763 0.0514,0.53316 0.077,0.79973 0.10209,1.63257 0.11609,3.26882 0.0965,4.90389 0.0326,1.49614 0.12038,3.02428 1.01815,4.26997 1.51639,1.33507 3.3884,2.31256 5.34779,2.79801 0.23955,0.01 0.47979,0.0494 0.71865,0.0288 0.54974,-0.0473 0.61344,-0.15359 1.04995,-0.42503 -1.98383,1.11173 -3.93225,2.28914 -5.95149,3.33519 -0.20229,0.1048 0.33601,-0.31187 0.47047,-0.49579 0.15553,-0.21274 0.26225,-0.45718 0.39337,-0.68577 0.53894,-1.1075 0.95741,-2.26587 1.26354,-3.45757 0.15748,-0.47757 0.029,-1.02708 0.29672,-1.46224 0.25997,-0.38974 0.29655,-0.81489 0.32155,-1.27235 0.0877,-2.89618 -1.13007,-0.37139 6.73472,-3.6832 0.12633,-0.0532 -0.0148,0.27376 -0.0193,0.41076 -0.006,0.1759 -0.008,0.3519 -0.0115,0.52784 -0.15613,1.5027 0.31408,2.85112 0.84901,4.23061 0.44348,0.84743 1.1732,2.67613 2.07886,3.15446 0.15175,0.0802 0.32647,0.10596 0.48971,0.15893 0.97428,0.10792 1.88503,-0.17689 2.77807,-0.54632 0.44201,-0.18285 1.70794,-0.85835 1.2982,-0.61152 -6.81967,4.10822 -6.12458,3.66935 -3.7742,1.95011 1.6217,-1.2835 2.8384,-2.95406 4.09718,-4.57026 2.24667,-1.21204 4.37901,-2.66544 6.74002,-3.63611 0.40675,-0.16722 1.333098,4.31939 1.400708,4.59358 0.48573,1.25624 0.53582,3.06368 1.24508,4.21168 0.23397,0.19498 0.56784,0.34424 0.8852,0.29822 0.14901,-0.0216 0.55419,-0.23263 0.42273,-0.15922 -6.465258,3.61069 -7.703958,4.72727 -5.483438,2.83438 1.15136,-1.57201 2.095,-3.3138 2.774068,-5.14133 0.49593,-1.54942 0.65561,-3.17116 0.74841,-4.78655 0,0 6.64385,-3.32247 6.64385,-3.32247 l 0,0 c -0.15502,1.67443 -0.31426,3.35775 -0.73055,4.99158 -0.3405,1.04145 -0.70361,2.04024 -1.25421,2.99376 -0.15916,0.27564 -0.36609,0.52241 -0.51852,0.80182 -1.81542,3.32761 0.97555,-1.43996 -0.81414,1.57738 -1.87134,2.75687 -0.57463,1.0424 -7.362868,4.5078 -0.50514,0.25788 -1.5124,-0.47629 -1.79581,-0.85203 -0.74438,-1.35907 -0.69223,-3.01502 -1.20903,-4.4625 -0.2671,-1.00439 -0.47813,-2.03911 -0.79009,-3.03071 -0.93915,-2.98527 -2.51711,0.6659 5.99914,-4.28825 -0.61697,0.51185 -1.03869,1.17603 -1.54336,1.79793 -0.83939,1.03437 -1.69233,2.0655 -2.70355,2.93995 -3.24615,2.71955 -1.40535,1.29282 -8.68088,5.26732 -1.37634,0.75187 -3.0465,1.18514 -4.58017,0.76038 -0.20886,-0.11573 -0.43451,-0.20535 -0.6266,-0.34719 -0.97986,-0.72357 -1.59544,-2.47127 -2.16059,-3.4949 -0.59558,-1.43583 -1.23001,-2.84037 -1.07727,-4.43026 -0.004,-0.17191 -0.005,-0.34388 -0.0107,-0.51573 -0.004,-0.12897 -0.13037,-0.32081 -0.0194,-0.38662 7.76712,-4.60597 6.83543,-6.04055 6.69953,-3.12144 -0.0269,0.51497 0.0402,1.06846 -0.17383,1.542 -0.068,0.16969 -0.25972,0.25195 -0.31006,0.40071 -0.0953,0.28174 0.039,0.64005 -0.0988,0.91871 -0.26017,1.26415 -0.7839,2.45738 -1.27368,3.64539 -0.0551,0.13717 -0.4992,1.33814 -0.68787,1.46175 -3.14252,2.05881 -5.35199,4.75865 -8.83396,4.01246 -2.04782,-0.69732 -4.04854,-1.725 -5.65677,-3.18488 -1.03268,-1.45784 -1.09354,-2.95465 -1.20751,-4.69293 -0.0108,-1.60856 0.0312,-3.21955 -0.0794,-4.82559 -0.3481,-3.2027 -0.29424,-0.7474 6.50901,-4.53685 0.0811,-0.0452 -0.0879,0.16375 -0.12661,0.24818 -0.2124,0.46368 -0.37092,0.94455 -0.4251,1.4549 -0.40913,1.82462 -1.215,3.49806 -2.28777,5.03219 -2.05575,3.17594 -3.45132,3.09377 -8.02719,5.8158 -0.80719,0.48017 -1.79752,0.4173 -2.68835,0.3673 -0.7926,-0.10824 -1.46864,-0.14558 -2.21614,-0.46923 -0.83943,-0.36344 -1.45092,-1.25277 -1.98256,-1.94771 0,0 6.45929,-3.78495 6.45929,-3.78495 z"
       inkscape:connector-curvature="0" />
    <path
       style="fill:#5c36b8;fill-opacity:1;stroke:#000000;stroke-width:1;stroke-linecap:butt;stroke-linejoin:miter;stroke-miterlimit:4;stroke-opacity:1;stroke-dasharray:none"
       d="m 242.71721,997.53334 c 0,0 -4.71385,-18.52918 1.01015,-24.24366 8.94314,-8.92827 24.90191,-9.08311 35.35534,0.25254 5.33497,4.7645 -0.18848,18.31623 7.07106,20.96066 4.05165,1.47589 6.18994,-2.84997 7.07107,-7.07107 0.73865,-3.53854 -4.29314,-15.65735 -4.29314,-15.65735 0,0 6.95111,8.24726 10.85913,7.82868 3.25034,-0.34814 10.6066,-1.89404 10.6066,-1.89404 0,0 -8.01355,6.57569 -9.3439,10.22779 -1.0594,2.90829 -2.77793,8.5863 -2.77793,8.5863 z"
       id="path3026"
       inkscape:connector-curvature="0"
       sodipodi:nodetypes="csssscscscc" />
    <path
       sodipodi:type="arc"
       style="fill:#ffffff;fill-opacity:1;stroke:#000000;stroke-width:0.60006386;stroke-miterlimit:4;stroke-opacity:1;stroke-dasharray:none"
       id="path3796"
       sodipodi:cx="84.726547"
       sodipodi:cy="455.86896"
       sodipodi:rx="2.6516504"
       sodipodi:ry="1.0732871"
       d="m 87.378198,455.86896 a 2.6516504,1.0732871 0 1 1 -5.303301,0 2.6516504,1.0732871 0 1 1 5.303301,0 z"
       transform="matrix(1,0,0,2.7771866,163.42023,-277.66773)" />
    <path
       sodipodi:type="arc"
       style="fill:#ffffff;fill-opacity:1;stroke:#000000;stroke-width:0.60006386;stroke-miterlimit:4;stroke-opacity:1;stroke-dasharray:none"
       id="path3796-0"
       sodipodi:cx="84.726547"
       sodipodi:cy="455.86896"
       sodipodi:rx="2.6516504"
       sodipodi:ry="1.0732871"
       d="m 87.378198,455.86896 a 2.6516504,1.0732871 0 1 1 -5.303301,0 2.6516504,1.0732871 0 1 1 5.303301,0 z"
       transform="matrix(1,0,0,2.7771866,169.10234,-277.59119)" />
    <path
       sodipodi:type="arc"
       style="fill:#000000;fill-opacity:1;stroke:#000000;stroke-width:1;stroke-miterlimit:4;stroke-opacity:1;stroke-dasharray:none"
       id="path3826"
       sodipodi:cx="86.071426"
       sodipodi:cy="469.04761"
       sodipodi:rx="2.3412697"
       sodipodi:ry="2.0634921"
       d="m 88.412696,469.04761 a 2.3412697,2.0634921 0 1 1 -4.682539,0 2.3412697,2.0634921 0 1 1 4.682539,0 z"
       transform="matrix(0.17398195,0,0,0.19740259,233.04837,896.01906)" />
    <path
       sodipodi:type="arc"
       style="fill:#000000;fill-opacity:1;stroke:#000000;stroke-width:1;stroke-miterlimit:4;stroke-opacity:1;stroke-dasharray:none"
       id="path3826-7"
       sodipodi:cx="86.071426"
       sodipodi:cy="469.04761"
       sodipodi:rx="2.3412697"
       sodipodi:ry="2.0634921"
       d="m 88.412696,469.04761 a 2.3412697,2.0634921 0 1 1 -4.682539,0 2.3412697,2.0634921 0 1 1 4.682539,0 z"
       transform="matrix(0.17398195,0,0,0.19740259,238.92155,896.01905)" />
    <path
       style="fill:#00ffff;stroke-width:4;stroke-miterlimit:4;stroke-dasharray:none"
       id="path3022-2"
       d="m 267.41872,594.99915 c 0.4129,0.64733 1.0082,1.46702 1.78561,1.7195 0.31033,0.10079 1.69186,0.20645 1.94938,0.22997 0.78302,-0.0316 1.09732,0.0424 1.80259,-0.29571 0.24314,-0.11658 0.90687,-0.58195 0.66937,-0.45426 -7.96634,4.28289 -6.62367,4.49801 -4.51702,1.75811 1.06215,-1.4429 1.89826,-3.02793 2.35899,-4.75995 0.67953,-3.66854 1.06069,-2.77747 7.23789,-4.61362 0.25671,-0.0763 0.0514,0.53316 0.077,0.79973 0.10209,1.63257 0.11609,3.26882 0.0965,4.90389 0.0326,1.49614 0.12038,3.02428 1.01815,4.26997 1.51639,1.33507 3.3884,2.31256 5.34779,2.79801 0.23955,0.01 0.47979,0.0494 0.71865,0.0288 0.54974,-0.0473 0.61344,-0.15359 1.04995,-0.42503 -1.98383,1.11173 -3.93225,2.28914 -5.95149,3.33519 -0.20229,0.1048 0.33601,-0.31187 0.47047,-0.49579 0.15553,-0.21274 0.26225,-0.45718 0.39337,-0.68577 0.53894,-1.1075 0.95741,-2.26587 1.26354,-3.45757 0.15748,-0.47757 0.029,-1.02708 0.29672,-1.46224 0.25997,-0.38974 0.29655,-0.81489 0.32155,-1.27235 0.0877,-2.89618 -1.13007,-0.37139 6.73472,-3.6832 0.12633,-0.0532 -0.0148,0.27376 -0.0193,0.41076 -0.006,0.1759 -0.008,0.3519 -0.0115,0.52784 -0.15613,1.5027 0.31408,2.85112 0.84901,4.23061 0.44348,0.84743 1.1732,2.67613 2.07886,3.15446 0.15175,0.0802 0.32647,0.10596 0.48971,0.15893 0.97428,0.10792 1.88503,-0.17689 2.77807,-0.54632 0.44201,-0.18285 1.70794,-0.85835 1.2982,-0.61152 -6.81967,4.10822 -6.12458,3.66935 -3.7742,1.95011 1.6217,-1.2835 2.8384,-2.95406 4.09718,-4.57026 2.24667,-1.21204 4.37901,-2.66544 6.74002,-3.63611 0.40675,-0.16722 1.3331,4.31939 1.40071,4.59358 0.48572,1.25624 0.53581,3.06368 1.24507,4.21168 0.23397,0.19498 0.56784,0.34424 0.8852,0.29822 0.14901,-0.0216 0.55419,-0.23263 0.42273,-0.15922 -6.46525,3.61069 -7.70395,4.72727 -5.48343,2.83438 1.15136,-1.57201 2.095,-3.3138 2.77407,-5.14133 0.49592,-1.54942 0.6556,-3.17116 0.7484,-4.78655 0,0 6.64385,-3.32247 6.64385,-3.32247 l 0,0 c -0.15502,1.67443 -0.31426,3.35775 -0.73055,4.99158 -0.3405,1.04145 -0.70361,2.04024 -1.25421,2.99376 -0.15916,0.27564 -0.36609,0.52241 -0.51852,0.80182 -1.81542,3.32761 0.97555,-1.43996 -0.81414,1.57738 -1.87134,2.75687 -0.57463,1.0424 -7.36286,4.5078 -0.50514,0.25788 -1.5124,-0.47629 -1.79581,-0.85203 -0.74438,-1.35907 -0.69223,-3.01502 -1.20903,-4.4625 -0.2671,-1.00439 -0.47813,-2.03911 -0.79009,-3.03071 -0.93915,-2.98527 -2.51711,0.6659 5.99914,-4.28825 -0.61697,0.51185 -1.03869,1.17603 -1.54336,1.79793 -0.83939,1.03437 -1.69233,2.0655 -2.70355,2.93995 -3.24615,2.71955 -1.40535,1.29282 -8.68088,5.26732 -1.37634,0.75187 -3.0465,1.18514 -4.58017,0.76038 -0.20886,-0.11573 -0.43451,-0.20535 -0.6266,-0.34719 -0.97986,-0.72357 -1.59544,-2.47127 -2.16059,-3.4949 -0.59558,-1.43583 -1.23001,-2.84037 -1.07727,-4.43026 -0.004,-0.17191 -0.005,-0.34388 -0.0107,-0.51573 -0.004,-0.12897 -0.13037,-0.32081 -0.0194,-0.38662 7.76712,-4.60597 6.83543,-6.04055 6.69953,-3.12144 -0.0269,0.51497 0.0402,1.06846 -0.17383,1.542 -0.068,0.16969 -0.25972,0.25195 -0.31006,0.40071 -0.0953,0.28174 0.039,0.64005 -0.0988,0.91871 -0.26017,1.26415 -0.7839,2.45738 -1.27368,3.64539 -0.0551,0.13717 -0.4992,1.33814 -0.68787,1.46175 -3.14252,2.05881 -5.35199,4.75865 -8.83396,4.01246 -2.04782,-0.69732 -4.04854,-1.725 -5.65677,-3.18488 -1.03268,-1.45784 -1.09354,-2.95465 -1.20751,-4.69293 -0.0108,-1.60856 0.0312,-3.21955 -0.0794,-4.82559 -0.3481,-3.2027 -0.29424,-0.7474 6.50901,-4.53685 0.0811,-0.0452 -0.0879,0.16375 -0.12661,0.24818 -0.2124,0.46368 -0.37092,0.94455 -0.4251,1.4549 -0.40913,1.82462 -1.215,3.49806 -2.28777,5.03219 -2.05575,3.17594 -3.45132,3.09377 -8.02719,5.8158 -0.80719,0.48017 -1.79752,0.4173 -2.68835,0.3673 -0.7926,-0.10824 -1.46864,-0.14558 -2.21614,-0.46923 -0.83943,-0.36344 -1.45092,-1.25277 -1.98256,-1.94771 0,0 6.45929,-3.78495 6.45929,-3.78495 z"
       inkscape:connector-curvature="0" />
  </g>
</svg>
